HIERARCHY
ROOT hip
{
  OFFSET 0 0 0
  CHANNELS 6 Xposition Yposition Zposition Zrotation Yrotation Xrotation
  JOINT abdomen
  {
    OFFSET 0 20.6881 -0.73152
    CHANNELS 3 Zrotation Xrotation Yrotation
    JOINT chest
    {
      OFFSET 0 11.7043 -0.48768
      CHANNELS 3 Zrotation Xrotation Yrotation
      JOINT neck
      {
        OFFSET 0 22.1894 -2.19456
        CHANNELS 3 Zrotation Xrotation Yrotation
        JOINT head
        {
          OFFSET -0.24384 7.07133 1.2192
          CHANNELS 3 Zrotation Xrotation Yrotation
          JOINT leftEye
          {
            OFFSET 4.14528 8.04674 8.04672
            CHANNELS 3 Zrotation Xrotation Yrotation
            End Site
            {
              OFFSET 1 0 0
            }
          }
          JOINT rightEye
          {
            OFFSET -3.6576 8.04674 8.04672
            CHANNELS 3 Zrotation Xrotation Yrotation
            End Site
            {
              OFFSET 1 0 0
            }
          }
        }
      }
      JOINT rCollar
      {
        OFFSET -2.68224 19.2634 -4.8768
        CHANNELS 3 Zrotation Xrotation Yrotation
        JOINT rShldr
        {
          OFFSET -8.77824 -1.95073 1.46304
          CHANNELS 3 Zrotation Xrotation Yrotation
          JOINT rForeArm
          {
            OFFSET -28.1742 -1.7115 0.48768
            CHANNELS 3 Zrotation Xrotation Yrotation
            JOINT rHand
            {
              OFFSET -22.5879 0.773209 7.07136
              CHANNELS 3 Zrotation Xrotation Yrotation
              JOINT rThumb1
              {
                OFFSET -1.2192 -0.487915 3.41376
                CHANNELS 3 Zrotation Xrotation Yrotation
                JOINT rThumb2
                {
                  OFFSET -3.37035 -0.52449 3.41376
                  CHANNELS 3 Zrotation Xrotation Yrotation
                  End Site
                  {
                    OFFSET -1.78271 -1.18214 1.43049
                  }
                }
              }
              JOINT rIndex1
              {
                OFFSET -7.75947 0.938293 5.60832
                CHANNELS 3 Zrotation Xrotation Yrotation
                JOINT rIndex2
                {
                  OFFSET -2.54057 -0.884171 1.56538
                  CHANNELS 3 Zrotation Xrotation Yrotation
                  End Site
                  {
                    OFFSET -1.62519 -0.234802 1.16502
                  }
                }
              }
              JOINT rMid1
              {
                OFFSET -8.24714 1.18213 3.41376
                CHANNELS 3 Zrotation Xrotation Yrotation
                JOINT rMid2
                {
                  OFFSET -3.10165 -0.590103 1.0647
                  CHANNELS 3 Zrotation Xrotation Yrotation
                  End Site
                  {
                    OFFSET -2.48547 -0.328903 0.83742
                  }
                }
              }
              JOINT rRing1
              {
                OFFSET -8.82822 0.546677 1.51678
                CHANNELS 3 Zrotation Xrotation Yrotation
                JOINT rRing2
                {
                  OFFSET -2.60934 -0.819778 -0.0198488
                  CHANNELS 3 Zrotation Xrotation Yrotation
                  End Site
                  {
                    OFFSET -2.33842 -0.294052 0.168128
                  }
                }
              }
              JOINT rPinky1
              {
                OFFSET -8.27202 -0.0477905 -0.4584
                CHANNELS 3 Zrotation Xrotation Yrotation
                JOINT rPinky2
                {
                  OFFSET -1.82734 -0.647385 -0.700984
                  CHANNELS 3 Zrotation Xrotation Yrotation
                  End Site
                  {
                    OFFSET -1.69225 -0.51767 -0.607171
                  }
                }
              }
            }
          }
        }
      }
      JOINT lCollar
      {
        OFFSET 2.68224 19.2634 -4.8768
        CHANNELS 3 Zrotation Xrotation Yrotation
        JOINT lShldr
        {
          OFFSET 8.77824 -1.95073 1.46304
          CHANNELS 3 Zrotation Xrotation Yrotation
          JOINT lForeArm
          {
            OFFSET 28.1742 -1.7115 0.48768
            CHANNELS 3 Zrotation Xrotation Yrotation
            JOINT lHand
            {
              OFFSET 22.5879 0.773209 7.07136
              CHANNELS 3 Zrotation Xrotation Yrotation
              JOINT lThumb1
              {
                OFFSET 1.2192 -0.487915 3.41376
                CHANNELS 3 Zrotation Xrotation Yrotation
                JOINT lThumb2
                {
                  OFFSET 3.37035 -0.52449 3.41376
                  CHANNELS 3 Zrotation Xrotation Yrotation
                  End Site
                  {
                    OFFSET 1.78271 -1.18214 1.43049
                  }
                }
              }
              JOINT lIndex1
              {
                OFFSET 7.75947 0.938293 5.60832
                CHANNELS 3 Zrotation Xrotation Yrotation
                JOINT lIndex2
                {
                  OFFSET 2.54057 -0.884171 1.56538
                  CHANNELS 3 Zrotation Xrotation Yrotation
                  End Site
                  {
                    OFFSET 1.62519 -0.234802 1.16502
                  }
                }
              }
              JOINT lMid1
              {
                OFFSET 8.24714 1.18213 3.41376
                CHANNELS 3 Zrotation Xrotation Yrotation
                JOINT lMid2
                {
                  OFFSET 3.10165 -0.590103 1.0647
                  CHANNELS 3 Zrotation Xrotation Yrotation
                  End Site
                  {
                    OFFSET 2.48547 -0.328903 0.83742
                  }
                }
              }
              JOINT lRing1
              {
                OFFSET 8.82822 0.546677 1.51678
                CHANNELS 3 Zrotation Xrotation Yrotation
                JOINT lRing2
                {
                  OFFSET 2.60934 -0.819778 -0.0198488
                  CHANNELS 3 Zrotation Xrotation Yrotation
                  End Site
                  {
                    OFFSET 2.33842 -0.294052 0.168128
                  }
                }
              }
              JOINT lPinky1
              {
                OFFSET 8.27202 -0.0477905 -0.4584
                CHANNELS 3 Zrotation Xrotation Yrotation
                JOINT lPinky2
                {
                  OFFSET 1.82734 -0.647385 -0.700984
                  CHANNELS 3 Zrotation Xrotation Yrotation
                  End Site
                  {
                    OFFSET 1.69225 -0.51767 -0.607171
                  }
                }
              }
            }
          }
        }
      }
    }
  }
  JOINT rButtock
  {
    OFFSET -8.77824 4.35084 1.2192
    CHANNELS 3 Zrotation Xrotation Yrotation
    JOINT rThigh
    {
      OFFSET 0 -1.70687 -2.19456
      CHANNELS 3 Zrotation Xrotation Yrotation
      JOINT rShin
      {
        OFFSET 0 -36.8199 0.73152
        CHANNELS 3 Zrotation Xrotation Yrotation
        JOINT rFoot
        {
          OFFSET 0.73152 -45.1104 -5.12064
          CHANNELS 3 Zrotation Xrotation Yrotation
          End Site
          {
            OFFSET -1.1221 -3.69964 12.103
          }
        }
      }
    }
  }
  JOINT lButtock
  {
    OFFSET 8.77824 4.35084 1.2192
    CHANNELS 3 Zrotation Xrotation Yrotation
    JOINT lThigh
    {
      OFFSET 0 -1.70687 -2.19456
      CHANNELS 3 Zrotation Xrotation Yrotation
      JOINT lShin
      {
        OFFSET 0 -36.8199 0.73152
        CHANNELS 3 Zrotation Xrotation Yrotation
        JOINT lFoot
        {
          OFFSET -0.73152 -45.1104 -5.12064
          CHANNELS 3 Zrotation Xrotation Yrotation
          End Site
          {
            OFFSET 1.1221 -3.69964 12.103
          }
        }
      }
    }
  }
}
MOTION
Frames:	5
Frame Time:	0.00833333
63.818799999999996 82.6293 -29.2648 -0.0 -0.0 -0.0 -0.0 -4.771896 -180.0 0.0 -4.771896 -180.0 1.681211 -0.191291 9.638157 -1.625502 0.469952 -9.628684 -0.0 -0.0 0.0 -0.0 -0.0 0.0 -80.1661 68.371792 83.260848 16.928444 14.030768 -0.169595 152.155146 58.98754 -179.703775 -169.820586 39.113772 141.609105 -121.36458 30.329582 71.957921 -11.072897 -23.677659 25.893409 -140.684449 1.505836 116.183204 -0.021327 35.623573 -3.069997 -173.037515 -44.087847 144.930636 2.787047 7.045662 3.357794 -72.133176 72.974596 89.989695 -177.162907 72.367094 -171.346499 -26.564207 -38.860901 -25.60587 -4.748886 -16.531578 -4.579062 9.651699 34.836178 -11.199233 14.000503 -74.85146 25.083321 -0.842416 33.888812 -1.784744 1.916758 6.137557 0.107465 2.608268 2.55464 -0.457401 0.791118 1.494073 -2.364448 -11.98129 -21.346868 5.061629 -1.055768 2.735255 -4.058882 -0.541241 -1.589941 0.294737 114.192825 60.204441 -101.539831 145.12196 1.973689 179.748387 143.962188 -11.93641 177.207694 0.669803 -1.718087 0.620046 24.797833 -39.923888 23.070583 -0.0 0.0 -0.0 -0.0 -0.0 -0.0 6.882802 3.713377 72.914422 -124.756715 50.85885 54.66363 -0.0 0.0 -0.0 -0.0 -0.0 -0.0 -6.882802 3.713377 -72.914422 124.756715 50.85885 -54.66363
63.7935 82.9566 -30.9455 -0.0 0.0 -0.0 -0.0 -4.771896 -180.0 0.0 -4.771896 -180.0 12.005674 11.259609 108.921114 -6.73077 14.992858 -109.222195 0.0 -0.0 -0.0 0.0 -0.0 -0.0 -80.1661 68.371792 83.260848 -72.207361 86.566517 91.720375 4.066247 -21.082228 -33.403477 168.964103 -21.151338 143.166903 -121.36458 30.329582 71.957921 -11.072897 -23.677659 25.893409 -19.170572 24.114561 13.380841 -169.651815 -7.720422 115.194425 -160.937898 -7.488186 143.367502 -156.385878 5.824953 141.546268 0.004873 1.771387 0.556475 -150.989586 60.916022 154.726893 -25.537984 -38.087442 -24.598474 -13.360736 -31.031915 -12.855697 155.61387 -4.23638 -161.991154 159.905035 -17.682477 -161.946285 -177.753222 20.248063 -146.829205 -175.014916 -3.382627 -145.086245 93.743665 37.963835 -53.548561 153.349707 -29.767867 -79.515773 108.427673 34.160977 -91.742903 -7.822979 6.075567 14.818609 160.09819 -4.901163 -142.968881 84.791009 63.915253 -79.783227 -0.000474 0.063807 -0.020046 32.485757 72.433735 -35.167877 0.344362 -0.890269 0.318422 158.373057 43.1048 149.186809 0.0 0.0 -0.0 -0.0 -0.0 -0.0 4.304493 0.86717 39.030537 51.159233 -50.862044 -36.786167 0.0 0.0 -0.0 -0.0 -0.0 -0.0 -4.304493 0.86717 -39.030537 -3.299917 -5.358631 41.931592
63.73989999999999 83.2994 -32.7852 -0.0 -0.0 0.0 0.0 0.0 0.0 0.0 -0.0 -0.0 10.034043 15.923643 138.388627 -2.970543 18.523473 -139.311015 -0.0 -0.0 0.0 -0.0 -0.0 0.0 -155.417258 -2.951435 161.718542 17.824299 2.241168 16.283611 -4.708231 -45.27458 -37.635251 158.249201 -43.003498 136.576995 2.016417 -2.000371 -0.275365 -29.979596 24.059123 25.593385 -159.786064 -32.611127 122.690945 43.051929 -36.124122 -6.651367 78.537123 -80.919176 49.688177 -156.349611 12.498881 137.205017 -145.121957 1.974539 -179.748654 -15.343184 -71.882338 -46.812218 0.321363 0.844247 0.29644 63.437939 86.009273 -27.569003 80.1661 68.371792 -83.260848 70.372238 86.569955 -89.881867 58.854369 -75.122333 85.248589 -100.503417 -70.321001 -84.510006 -86.334639 -50.602036 -35.77321 78.906342 -86.637304 117.941813 127.615651 18.962913 -107.328458 -2.312015 28.08034 8.811312 160.673322 -6.667841 -143.245105 -10.378113 -11.790896 0.871517 145.119465 0.267731 179.212447 -22.263099 29.142503 5.755405 6.260853 -14.051921 5.884706 85.670487 -54.770859 83.160406 -0.0 0.0 0.0 -0.0 -0.0 -0.0 2.512346 0.127625 22.075435 96.382494 -47.046576 -8.794343 -0.0 0.0 0.0 -0.0 -0.0 -0.0 -2.512346 0.127625 -22.075435 -96.382494 -47.046576 8.794343
63.7676 83.5049 -34.8047 -0.0 -0.0 0.0 0.0 0.0 0.0 0.0 -0.0 -0.0 10.034043 15.923643 138.388627 -2.970543 18.523473 -139.311015 -0.0 -0.0 0.0 -0.0 -0.0 0.0 -155.417258 -2.951435 161.718542 17.824299 2.241168 16.283611 -4.708231 -45.27458 -37.635251 158.249201 -43.003498 136.576995 99.080965 -51.215433 44.800906 -29.869411 -6.278741 -13.774509 2.325555 -3.867927 -1.259147 100.963313 -60.567958 56.181732 -169.08961 -33.247392 145.374931 -172.020057 -35.25074 141.66579 -72.350995 72.974965 90.218005 -79.819406 -72.164252 -96.790589 -150.577948 31.033784 -146.363897 3.004504 -2.908147 -3.683425 80.1661 68.371792 -83.260848 70.372238 86.569955 -89.881867 58.854369 -75.122333 85.248589 -100.503417 -70.321001 -84.510006 -94.369173 -51.137689 -41.452311 32.894748 2.055036 9.536028 117.900883 27.950241 -99.678959 -144.96185 -74.302905 -87.961143 161.153703 -8.160616 -143.465095 8.938372 34.106586 -9.933816 145.118942 0.185466 179.186604 14.278319 -72.051794 45.856609 139.224096 -4.39683 136.390672 18.458714 -37.607313 22.372021 -0.0 0.0 0.0 -0.0 -0.0 -0.0 2.512346 0.127625 22.075435 96.382494 -47.046576 -8.794343 -0.0 0.0 0.0 -0.0 -0.0 -0.0 -2.512346 0.127625 -22.075435 -96.382494 -47.046576 8.794343
64.0542 83.5418 -36.8286 -0.0 -0.0 0.0 0.0 0.0 0.0 0.0 -0.0 -0.0 10.034043 15.923643 138.388627 -2.970543 18.523473 -139.311015 -0.0 -0.0 0.0 -0.0 -0.0 0.0 -155.417258 -2.951435 161.718542 17.824299 2.241168 16.283611 -4.708231 -45.27458 -37.635251 158.249201 -43.003498 136.576995 178.475877 -18.892669 89.013166 -29.749638 -33.239845 -2.414641 -27.608968 30.765951 20.255213 -179.694492 -27.29392 116.45184 -36.036059 51.723116 29.832321 -167.446161 -15.392401 146.812852 -145.12168 2.055028 -179.77395 22.622865 39.820422 -4.979312 -156.381711 53.734251 -150.117957 4.221651 2.356283 -2.695703 80.1661 68.371792 -83.260848 70.372238 86.569955 -89.881867 58.854369 -75.122333 85.248589 -100.503417 -70.321001 -84.510006 174.193348 -11.857374 -89.870273 -179.727988 -16.436747 -95.805742 83.732676 42.330462 -69.989987 -6.566247 -1.428146 14.535378 145.942829 28.45193 -133.228562 128.563276 52.963268 -120.804115 -0.000475 0.063903 -0.020076 -1.197066 -26.583932 3.127278 122.105314 -32.095117 119.945696 144.631086 10.502485 143.800464 -0.0 0.0 0.0 -0.0 -0.0 -0.0 2.512346 0.127625 22.075435 96.382494 -47.046576 -8.794343 -0.0 0.0 0.0 -0.0 -0.0 -0.0 -2.512346 0.127625 -22.075435 -96.382494 -47.046576 8.794343
